<?xml version="1.0" encoding="utf-8"?>
<!-- Generator: Adobe Illustrator 16.0.0, SVG Export Plug-In . SVG Version: 6.00 Build 0)  -->
<!DOCTYPE svg PUBLIC "-//W3C//DTD SVG 1.1//EN" "http://www.w3.org/Graphics/SVG/1.1/DTD/svg11.dtd">
<svg version="1.1" id="Capa_1" xmlns="http://www.w3.org/2000/svg" xmlns:xlink="http://www.w3.org/1999/xlink" x="0px" y="0px"
	 width="798px" height="288px" viewBox="110.5 228.5 798 288" enable-background="new 110.5 228.5 798 288" xml:space="preserve">
<g>
	
		<g id="_x32_d570bb3-fd5d-4e78-92c0-be8c9ee7f09e" transform="matrix(2.5026348375806355,0,0,2.5026348375806355,107.33927326672598,118.6024722580205)">
		<path fill="#4D4545" d="M105.21,103.344L105.21,103.344L105.21,103.344c-0.474,0.18-0.869,0.191-1.185,0.034l0,0l0,0
			c-0.316-0.158-0.474-0.361-0.474-0.61l0,0l0,0c0-0.248,0.079-0.542,0.237-0.88l0,0l0,0c0.158-0.339,0.293-0.667,0.406-0.982l0,0
			l0,0c0.317-0.745,0.192-1.332-0.372-1.761l0,0l0,0c-0.655-0.429-1.321-0.644-1.998-0.644l0,0l0,0
			c-0.655,0-1.276,0.271-1.863,0.813l0,0l0,0c-0.587,0.564-0.88,1.332-0.88,2.303l0,0l0,0c0,1.422,0.699,2.788,2.1,4.098l0,0l0,0
			c1.377,1.309,3.274,1.964,5.69,1.964l0,0l0,0c2.393,0,4.392-0.711,5.995-2.134l0,0l0,0c1.603-1.422,2.405-3.161,2.405-5.215l0,0
			l0,0c0-2.778-2.089-5.227-6.266-7.35l0,0l0,0c-0.226-0.113-0.722-0.35-1.491-0.711l0,0l0,0c-0.745-0.361-1.264-0.621-1.558-0.779
			l0,0l0,0c-0.271-0.158-0.734-0.418-1.389-0.779l0,0l0,0c-0.655-0.339-1.163-0.633-1.525-0.881l0,0l0,0
			c-0.361-0.271-0.79-0.575-1.287-0.914l0,0l0,0c-0.768-0.497-1.58-1.219-2.438-2.168l0,0l0,0c-1.197-1.468-1.795-3.184-1.795-5.148
			l0,0l0,0c0-1.987,0.96-3.748,2.879-5.283l0,0l0,0c1.942-1.535,4.211-2.303,6.808-2.303l0,0l0,0c2.62,0,4.844,0.497,6.672,1.49l0,0
			l0,0c1.829,0.971,2.743,2.077,2.743,3.319l0,0l0,0c0,0.745-0.316,1.253-0.949,1.524l0,0l0,0c-0.225,0.045-0.508,0.068-0.847,0.068
			l0,0l0,0c-0.339,0-0.677-0.102-1.016-0.305l0,0l0,0c-0.339-0.226-0.723-0.531-1.152-0.915l0,0l0,0
			c-0.429-0.384-0.813-0.689-1.152-0.914l0,0l0,0c-0.948-0.632-2.247-0.948-3.895-0.948l0,0l0,0c-1.648,0-3.104,0.429-4.369,1.287
			l0,0l0,0c-1.287,0.858-1.93,1.908-1.93,3.15l0,0l0,0c0,1.265,0.598,2.427,1.795,3.489l0,0l0,0
			c1.084,0.948,2.777,2.043,5.081,3.285l0,0l0,0c2.303,1.265,3.838,2.134,4.606,2.608l0,0l0,0c1.851,1.106,3.365,2.45,4.539,4.031
			l0,0l0,0c1.151,1.603,1.727,3.319,1.727,5.148l0,0l0,0c0,2.912-1.14,5.419-3.421,7.518l0,0l0,0c-2.258,2.1-5.137,3.15-8.637,3.15
			l0,0l0,0c-3.5,0-6.266-0.914-8.298-2.744l0,0l0,0c-2.032-1.829-3.049-3.849-3.049-6.062l0,0l0,0c0-2.213,0.587-3.929,1.761-5.148
			l0,0l0,0c1.174-1.219,2.642-1.829,4.403-1.829l0,0l0,0c1.784,0,3.15,0.44,4.098,1.32l0,0l0,0c0.948,0.904,1.422,1.92,1.422,3.049
			l0,0l0,0c0,1.129-0.305,2.065-0.914,2.811l0,0l0,0C106.09,102.869,105.684,103.186,105.21,103.344z M126.581,98.5L126.581,98.5
			L126.581,98.5c0,2.62,0.734,4.844,2.201,6.672l0,0l0,0c1.446,1.829,3.263,2.743,5.453,2.743l0,0l0,0
			c2.213,0,4.087-0.914,5.622-2.743l0,0l0,0c1.513-1.852,2.269-4.098,2.269-6.74l0,0l0,0c0-2.62-0.734-4.854-2.202-6.706l0,0l0,0
			c-1.467-1.851-3.285-2.777-5.453-2.777l0,0l0,0c-2.168,0-4.042,0.937-5.622,2.811l0,0l0,0
			C127.338,93.635,126.581,95.881,126.581,98.5z M126.344,107.374L126.344,107.374L126.344,107.374
			c-2.077-2.416-3.116-5.374-3.116-8.874l0,0l0,0c0-3.522,1.061-6.503,3.184-8.942l0,0l0,0c2.1-2.461,4.764-3.692,7.993-3.692l0,0
			l0,0c3.229,0,5.882,1.219,7.959,3.658l0,0l0,0c2.101,2.416,3.15,5.385,3.15,8.908l0,0l0,0c0,3.522-1.072,6.503-3.217,8.942l0,0
			l0,0c-2.122,2.416-4.786,3.624-7.993,3.624l0,0l0,0C131.097,110.998,128.444,109.79,126.344,107.374z M171.218,95.351
			L171.218,95.351l-0.237,7.451v2.032l0,0c0.045,1.31,0.361,2.089,0.949,2.337l0,0l0,0c0.203,0.068,0.451,0.124,0.745,0.169l0,0l0,0
			c0.293,0.045,0.497,0.101,0.61,0.169l0,0l0,0c0.09,0.068,0.135,0.192,0.135,0.373l0,0l0,0c0,0.813-0.26,1.502-0.779,2.066l0,0l0,0
			c-0.519,0.542-1.129,0.812-1.829,0.812l0,0l0,0c-1.152,0-1.965-0.451-2.438-1.354l0,0l0,0c-0.474-0.926-0.711-2.337-0.711-4.234
			l0,0l0.169-8.704l0,0c0-2.19-0.463-3.94-1.388-5.25l0,0l0,0c-0.926-1.31-2.202-1.964-3.827-1.964l0,0l0,0
			c-1.603,0-3.159,0.892-4.672,2.676l0,0l0,0c-1.49,1.784-2.551,3.827-3.183,6.13l0,0l0.135,10.296l0,0
			c0,1.604-0.598,2.405-1.795,2.405l0,0l0,0c-1.468,0-2.202-1.083-2.202-3.251l0,0l0,0c0-2.145,0.316-5.294,0.949-9.449l0,0l0,0
			c0-1.332-0.124-3.195-0.373-5.589l0,0l0,0c-0.271-2.393-0.406-3.85-0.406-4.369l0,0l0,0c0-0.497,0.169-0.948,0.508-1.355l0,0l0,0
			c0.339-0.429,0.779-0.643,1.321-0.643l0,0l0,0c0.542,0,0.983,0.214,1.321,0.643l0,0l0,0c0.362,0.407,0.542,0.847,0.542,1.321l0,0
			l0,0c0,0.474-0.011,1.185-0.034,2.134l0,0l0,0c-0.023,0.948-0.034,1.592-0.034,1.93l0,0l0,0c2.326-4.019,5.171-6.029,8.533-6.029
			l0,0l0,0c2.529,0,4.493,0.914,5.893,2.743l0,0l0,0C170.518,90.654,171.218,92.821,171.218,95.351z M182.192,99.449L182.192,99.449
			l0.17,8.907l0,0c0,1.604-0.61,2.405-1.829,2.405l0,0l0,0c-1.445,0-2.168-1.083-2.168-3.251l0,0l0,0
			c0-2.145,0.316-5.294,0.948-9.449l0,0l0,0c0-1.332-0.135-3.184-0.406-5.554l0,0l0,0c-0.271-2.393-0.406-3.839-0.406-4.335l0,0l0,0
			c0-0.519,0.181-0.994,0.542-1.423l0,0l0,0c0.338-0.429,0.779-0.643,1.321-0.643l0,0l0,0c0.542,0,0.983,0.214,1.321,0.643l0,0l0,0
			c0.338,0.429,0.508,0.869,0.508,1.321l0,0l0,0c0,0.429,0,1.14,0,2.134l0,0l0,0c-0.022,0.971-0.034,1.648-0.034,2.032l0,0l0,0
			c0.61-1.58,1.592-3.003,2.947-4.267l0,0l0,0c1.377-1.242,2.755-1.863,4.132-1.863l0,0l0,0c1.377,0,2.472,0.282,3.285,0.847l0,0
			l0,0c0.813,0.542,1.219,1.162,1.219,1.863l0,0l0,0c0,0.7-0.181,1.242-0.542,1.626l0,0l0,0c-0.339,0.384-0.791,0.576-1.355,0.576
			l0,0l0,0c-0.542,0-1.152-0.293-1.829-0.88l0,0l0,0c-0.587-0.587-1.084-0.881-1.49-0.881l0,0l0,0c-1.061,0-2.281,1.129-3.659,3.387
			l0,0l0,0C183.468,94.899,182.576,97.168,182.192,99.449z M200.041,75.91L200.041,75.91L200.041,75.91
			c1.287,0,1.93,0.768,1.93,2.303l0,0l0,0c0,0.677-0.226,1.332-0.677,1.965l0,0l0,0c-0.452,0.61-0.994,0.914-1.626,0.914l0,0l0,0
			c-1.333,0-1.999-0.801-1.999-2.405l0,0l0,0c0-0.768,0.226-1.422,0.677-1.964l0,0l0,0C198.799,76.18,199.363,75.91,200.041,75.91z
			 M201.599,88.475L201.599,88.475l-0.237,9.958l0.237,9.958l0,0c0,1.58-0.598,2.37-1.795,2.37l0,0l0,0
			c-1.196,0-1.795-0.79-1.795-2.37l0,0l0.237-9.958l-0.237-9.958l0,0c0-1.581,0.599-2.371,1.795-2.371l0,0l0,0
			C201.001,86.104,201.599,86.894,201.599,88.475z M224.833,103.479L224.833,103.479L224.833,103.479c0,2.122-0.88,3.872-2.642,5.25
			l0,0l0,0c-1.738,1.355-3.827,2.032-6.266,2.032l0,0l0,0c-2.438,0-4.573-0.553-6.401-1.659l0,0l0,0
			c-1.806-1.129-2.71-2.247-2.71-3.353l0,0l0,0c0-0.723,0.305-1.208,0.915-1.456l0,0l0,0c0.587-0.272,1.039-0.249,1.354,0.068l0,0
			l0,0c0.068,0.045,0.7,0.666,1.897,1.862l0,0l0,0c0.362,0.316,1.016,0.644,1.964,0.983l0,0l0,0
			c0.949,0.316,1.784,0.474,2.506,0.474l0,0l0,0c1.761,0,3.195-0.361,4.302-1.084l0,0l0,0c1.106-0.723,1.66-1.75,1.66-3.082l0,0l0,0
			c0-1.671-1.58-3.048-4.742-4.132l0,0l0,0c-3.5-1.197-5.746-2.224-6.74-3.082l0,0l0,0c-0.474-0.406-0.903-0.948-1.287-1.626l0,0
			l0,0c-0.406-0.677-0.61-1.4-0.61-2.168l0,0l0,0c0-1.693,0.79-3.184,2.371-4.471l0,0l0,0c1.557-1.287,3.432-1.93,5.622-1.93l0,0
			l0,0c2.168,0,3.929,0.372,5.284,1.118l0,0l0,0c1.377,0.745,2.066,1.58,2.066,2.506l0,0l0,0c0,1.039-0.553,1.558-1.66,1.558l0,0
			l0,0c-0.451,0-0.926-0.169-1.423-0.508l0,0l0,0c-1.535-1.061-3.003-1.591-4.402-1.591l0,0l0,0c-1.4,0-2.462,0.316-3.184,0.948l0,0
			l0,0c-0.858,0.61-1.287,1.321-1.287,2.134l0,0l0,0c0,0.79,0.406,1.445,1.219,1.965l0,0l0,0c0.835,0.497,2.179,1.118,4.03,1.863
			l0,0l0,0c1.874,0.745,3.014,1.208,3.421,1.389l0,0l0,0c1.4,0.61,2.54,1.434,3.421,2.472l0,0l0,0
			C224.394,100.996,224.833,102.169,224.833,103.479z M232.217,75.91L232.217,75.91L232.217,75.91c1.31,0,1.964,0.768,1.964,2.303
			l0,0l0,0c0,0.677-0.226,1.332-0.677,1.965l0,0l0,0c-0.475,0.61-1.027,0.914-1.66,0.914l0,0l0,0c-1.332,0-1.998-0.801-1.998-2.405
			l0,0l0,0c0-0.768,0.237-1.422,0.711-1.964l0,0l0,0C231.009,76.18,231.562,75.91,232.217,75.91z M233.809,88.475L233.809,88.475
			l-0.237,9.958l0.237,9.958l0,0c0,1.58-0.61,2.37-1.829,2.37l0,0l0,0c-1.196,0-1.795-0.79-1.795-2.37l0,0l0.237-9.958l-0.237-9.958
			l0,0c0-1.581,0.599-2.371,1.795-2.371l0,0l0,0C233.199,86.104,233.809,86.894,233.809,88.475z M249.931,89.593L249.931,89.593
			l-3.963-0.102l-0.068,11.245l0,0c0,2.89,0.101,4.775,0.304,5.656l0,0l0,0c0.226,0.858,0.858,1.287,1.897,1.287l0,0l0,0
			c0.519,0,1.129-0.158,1.829-0.474l0,0l0,0c0.677-0.339,1.095-0.508,1.253-0.508l0,0l0,0c0.677,0,1.016,0.327,1.016,0.982l0,0l0,0
			c0,0.677-0.587,1.366-1.761,2.066l0,0l0,0c-1.174,0.677-2.326,1.016-3.455,1.016l0,0l0,0c-2.755,0-4.132-2.021-4.132-6.062l0,0
			l-0.034-15.208l0,0c-1.062,0.09-1.795,0.136-2.202,0.136l0,0l0,0c-1.58,0-2.371-0.519-2.371-1.558l0,0l0,0
			c0-1.039,0.791-1.558,2.371-1.558l0,0l2.1,0.068l-0.102-5.283l0,0c0-1.581,0.599-2.371,1.795-2.371l0,0l0,0
			c1.197,0,1.795,0.791,1.795,2.371l0,0l-0.135,5.351l3.861-0.203l0,0c1.58,0,2.371,0.542,2.371,1.626l0,0l0,0
			C252.302,89.085,251.512,89.593,249.931,89.593z M275.435,98.839L275.435,98.839L275.435,98.839c0,2.303,0.169,4.222,0.508,5.758
			l0,0l0,0c0.316,1.535,0.734,2.393,1.253,2.574l0,0l0,0c0.181,0.09,0.406,0.158,0.678,0.203l0,0l0,0
			c0.271,0.022,0.463,0.068,0.575,0.135l0,0l0,0c0.114,0.068,0.169,0.192,0.169,0.373l0,0l0,0c0,0.881-0.237,1.58-0.711,2.1l0,0l0,0
			c-0.475,0.519-1.163,0.778-2.066,0.778l0,0l0,0c-0.903,0-1.615-0.575-2.134-1.727l0,0l0,0c-0.497-1.152-0.746-2.653-0.746-4.504
			l0,0l0,0c-0.858,1.829-2.043,3.33-3.556,4.504l0,0l0,0c-1.513,1.152-3.229,1.727-5.148,1.727l0,0l0,0
			c-1.92,0-3.557-0.632-4.912-1.896l0,0l0,0c-2.529-2.326-3.794-5.622-3.794-9.889l0,0l0,0c0-3.455,0.994-6.458,2.98-9.009l0,0l0,0
			c2.01-2.574,4.573-3.861,7.689-3.861l0,0l0,0c2.371,0,4.425,0.813,6.165,2.438l0,0l0,0c0-1.626,0.598-2.438,1.795-2.438l0,0l0,0
			c1.468,0,2.202,1.084,2.202,3.251l0,0l0,0C276.383,91.524,276.067,94.685,275.435,98.839z M272.691,99.245L272.691,99.245
			l-0.237-7.282l0,0c-1.874-1.851-3.85-2.777-5.927-2.777l0,0l0,0c-2.1,0-3.895,0.937-5.385,2.811l0,0l0,0
			c-1.468,1.874-2.201,4.121-2.201,6.74l0,0l0,0c0,2.642,0.485,4.798,1.456,6.469l0,0l0,0c0.971,1.648,2.326,2.472,4.064,2.472l0,0
			l0,0c1.739,0,3.353-0.768,4.843-2.303l0,0l0,0C270.772,103.818,271.901,101.774,272.691,99.245z M300.092,103.479L300.092,103.479
			L300.092,103.479c0,2.122-0.88,3.872-2.642,5.25l0,0l0,0c-1.761,1.355-3.849,2.032-6.266,2.032l0,0l0,0
			c-2.439,0-4.573-0.553-6.401-1.659l0,0l0,0c-1.807-1.129-2.71-2.247-2.71-3.353l0,0l0,0c0-0.723,0.294-1.208,0.881-1.456l0,0l0,0
			c0.61-0.272,1.072-0.249,1.388,0.068l0,0l0,0c0.068,0.045,0.7,0.666,1.897,1.862l0,0l0,0c0.339,0.316,0.983,0.644,1.931,0.983l0,0
			l0,0c0.948,0.316,1.795,0.474,2.54,0.474l0,0l0,0c1.762,0,3.195-0.361,4.301-1.084l0,0l0,0c1.107-0.723,1.66-1.75,1.66-3.082l0,0
			l0,0c0-1.671-1.581-3.048-4.742-4.132l0,0l0,0c-3.5-1.197-5.747-2.224-6.74-3.082l0,0l0,0c-0.475-0.406-0.903-0.948-1.287-1.626
			l0,0l0,0c-0.407-0.677-0.61-1.4-0.61-2.168l0,0l0,0c0-1.693,0.791-3.184,2.371-4.471l0,0l0,0c1.559-1.287,3.421-1.93,5.589-1.93
			l0,0l0,0c2.19,0,3.963,0.372,5.317,1.118l0,0l0,0c1.355,0.745,2.032,1.58,2.032,2.506l0,0l0,0c0,1.039-0.553,1.558-1.659,1.558
			l0,0l0,0c-0.429,0-0.903-0.169-1.423-0.508l0,0l0,0c-1.513-1.061-2.969-1.591-4.369-1.591l0,0l0,0c-1.4,0-2.472,0.316-3.218,0.948
			l0,0l0,0c-0.835,0.61-1.253,1.321-1.253,2.134l0,0l0,0c0,0.79,0.407,1.445,1.219,1.965l0,0l0,0
			c0.813,0.497,2.157,1.118,4.031,1.863l0,0l0,0c1.874,0.745,3.015,1.208,3.421,1.389l0,0l0,0c1.377,0.61,2.518,1.434,3.421,2.472
			l0,0l0,0C299.651,100.996,300.092,102.169,300.092,103.479z"/>
	</g>
	
		<g id="b7ee874f-0323-4971-b47b-f284e8b56f4e" transform="matrix(0.1288368359549569,0,0,0.1288368359549569,34.98825081655097,117.01472875735321)">
		<g>
			<path fill="#5476FF" d="M1670.578,1743.593c8.959,0.516,16.895-6.397,17.403-15.357c0.515-9.217-6.397-16.895-15.615-17.411
				c-9.217-0.515-16.895,6.397-17.411,15.615C1654.705,1735.399,1661.611,1743.078,1670.578,1743.593z M1430.699,1696.742
				c-8.959-0.508-16.895,6.405-17.403,15.364c-0.515,9.217,6.397,16.896,15.615,17.403c8.959,0.515,16.895-6.397,17.411-15.357
				C1446.829,1704.936,1439.916,1697.258,1430.699,1696.742z M1788.846,2030.562c-21.246-2.047-39.938,13.568-41.727,34.564
				c-2.047,21.246,13.568,39.938,34.556,41.727c21.254,2.047,39.938-13.568,41.985-34.556
				C1825.456,2051.3,1809.834,2032.358,1788.846,2030.562z M1280.429,1982.183c-21.246-2.047-39.931,13.564-41.985,34.56
				c-2.047,20.989,13.568,39.93,34.564,41.727c20.989,2.047,39.938-13.568,41.727-34.564
				C1317.039,2002.918,1301.675,1984.23,1280.429,1982.183L1280.429,1982.183z"/>
			<path fill="#5476FF" d="M2086.832,2068.711c0-92.417-57.091-174.848-142.342-208.896c-2.297-100.607-38.65-192.512-97.53-264.187
				c18.684-16.895,30.463-41.219,30.463-68.355c0-50.944-41.477-92.156-92.421-92.156c-35.072,0-65.277,19.708-80.892,48.64
				c-52.74-25.089-111.363-39.172-173.313-39.172s-120.572,14.083-173.313,39.172c-15.615-28.932-45.82-48.64-80.892-48.64
				c-50.944,0-92.163,41.212-92.163,92.156c0,27.136,11.779,51.459,30.463,68.355c-58.88,71.675-94.975,163.58-97.28,264.187
				c-85.5,34.049-142.334,116.737-142.334,208.896c0,100.092,66.301,186.365,160.253,215.04
				c-50.171,63.489-76.799,114.683-76.799,152.317c0,14.333,3.585,26.878,11.006,37.376c20.996,29.698,62.723,49.921,114.948,55.81
				c67.324,7.421,136.445-10.498,177.406-45.828c7.678-5.116,30.206-16.895,44.289-11.263
				c47.101,18.949,107.262,20.223,124.673,20.223c17.403,0,77.822-1.531,124.673-20.223c14.076-5.632,36.861,6.147,44.281,11.263
				c40.961,35.33,110.082,53.248,177.156,45.828c52.225-5.889,93.952-26.112,114.941-55.81
				c7.428-10.498,11.013-23.043,11.013-37.376c0-37.634-26.628-89.086-76.799-152.317
				C2020.523,2255.076,2086.832,2169.06,2086.832,2068.711L2086.832,2068.711z M1785.26,1486.061
				c22.785,0,41.219,18.427,41.219,40.954c0,12.294-5.632,23.3-14.341,30.721c-19.45-18.427-40.446-35.072-63.231-49.663
				C1755.82,1495.27,1769.388,1486.061,1785.26,1486.061z M1276.843,1486.061c15.872,0,29.44,8.959,36.353,22.27
				c-22.527,14.333-43.774,30.979-63.231,49.663c-8.702-7.421-14.333-18.434-14.333-30.721
				C1235.89,1504.487,1254.066,1486.061,1276.843,1486.061z M1531.056,1500.902c188.162,0,342.267,148.997,357.374,338.689
				c-95.233-29.44-219.906-47.616-356.866-47.616c-137.468,0-262.656,18.176-357.882,47.874
				C1188.523,1650.156,1342.894,1500.902,1531.056,1500.902z M1945.263,2434.786c0,3.328-0.773,4.608-1.023,4.866
				c-10.756,15.357-38.915,27.394-73.471,31.229c-52.483,5.889-104.965-7.163-133.632-33.018l-0.773-0.515l-1.789-1.539
				c-2.047-1.531-52.991-37.118-100.607-18.176c-29.698,11.779-72.706,16.13-102.911,16.13c-28.932,0-73.221-4.351-102.911-16.13
				c-45.828-18.427-94.975,14.341-100.357,17.926l-0.766,0.508l-2.047,1.539c-28.675,25.855-81.15,38.907-133.632,33.025
				c-34.306-3.843-62.723-15.872-73.471-31.237c-0.515-0.765-1.023-2.562-1.023-4.859c0-24.066,34.299-79.876,85.758-140.295
				c0,0,29.955,8.194,79.361,17.153c1.281,7.428,6.14,14.591,13.826,19.2l25.597,15.364c5.89,3.585,12.802,5.116,19.2,4.093
				c7.171-1.023,13.06-4.609,16.388-10.24l9.209-15.357c51.459,6.655,111.878,11.521,176.39,11.521
				c27.386,0,53.498-1.023,78.08-2.562l11.514,49.663c2.82,12.545,17.411,19.965,32.002,16.638l28.932-6.655
				c14.591-3.327,24.316-16.38,21.246-28.925l-8.959-38.657c95.483-12.287,154.113-31.236,154.113-31.236
				C1910.957,2354.66,1945.263,2410.47,1945.263,2434.786z M1298.097,2304.997l39.165-65.535c1.789-2.82,7.678-3.843,13.31-0.515
				l25.605,15.364c4.351,2.562,6.397,6.655,6.397,9.725c0,1.023-0.258,1.796-0.766,2.562l-39.173,65.535
				c-1.789,3.07-7.678,3.843-13.31,0.515l-25.597-15.364C1298.347,2313.698,1296.301,2307.809,1298.097,2304.997z
				 M1631.405,2301.154c1.539-2.554,4.866-4.609,8.452-5.374l28.925-6.655c3.585-0.766,7.428-0.515,9.983,1.281
				c1.023,0.508,2.304,1.789,2.82,3.328l17.153,74.494c0.766,3.328-2.82,8.194-9.217,9.725l-28.932,6.663
				c-6.397,1.531-11.771-1.281-12.545-4.609l-17.146-74.494c0-0.258-0.258-0.773-0.258-1.031
				C1630.382,2303.208,1630.897,2301.927,1631.405,2301.154L1631.405,2301.154z M1948.591,2210.787
				c-38.657,26.628-106.754,44.547-193.793,49.155c20.996-36.868,9.732-46.078-21.246-20.223
				c-18.942,15.872-40.446,19.965-54.529,20.731c-44.031-1.531-91.648-5.882-141.568-14.076
				c-218.875-35.33-381.698-219.906-299.517-75.776c54.529,95.741-37.634,87.547-111.363,47.617
				c-53.756-29.19-92.413-84.227-92.413-149.505c0-170.239,291.581-220.16,505.597-220.16c214.274,0,488.452,43.008,488.452,220.16
				C2028.209,2128.614,1996.207,2181.347,1948.591,2210.787L1948.591,2210.787z"/>
		</g>
	</g>
	
		<g id="_x30_1b752fb-4798-4475-b7fc-ddfd4b740d05" transform="matrix(0.2397534217521978,0,0,0.2397534217521978,108.75634954596951,163.16090414584326)">
		<path fill="#262222" d="M1057.036,1127.346v-4.57h-4.348v4.57H1057.036z M1053.62,1130.959l-0.835,21.445h4.155l-0.859-21.445
			H1053.62z M1113.995,1147.293c-1.568,1.246-3.261,2.012-5.403,2.012c-4.122,0-6.265-2.395-7.159-4.057
			c7.315-1.218,12.24-7.385,12.24-14.9c0-8.432-6.041-15.177-15.024-15.177c-9.012,0-15.052,6.745-15.052,15.177
			c0,8.22,5.79,14.806,14.419,15.124c1.917,3.963,6.102,6.713,10.511,6.713c2.88,0,5.146-0.802,7.256-2.464L1113.995,1147.293z
			 M1098.65,1142.242c-7.22,0-11.696-5.246-11.696-11.894c0-6.676,4.476-11.918,11.696-11.918c7.193,0,11.668,5.242,11.668,11.918
			C1110.317,1136.996,1105.843,1142.242,1098.65,1142.242z M1162.896,1115.526v16.969c0,6.871-4.566,9.747-9.266,9.747
			c-4.698,0-9.205-2.876-9.205-9.747v-16.969h-3.356v16.867c0,7.87,5.179,13.108,12.562,13.108c7.446,0,12.623-5.275,12.623-13.108
			v-16.867H1162.896z M1217.333,1118.752v-3.226h-21.804v29.628h21.804v-3.23h-18.446v-9.975h16.46v-3.259h-16.46v-9.939H1217.333z
			 M1277.005,1115.526v29.628h19.529v-3.23h-16.173v-26.398H1277.005z M1336.515,1115.526h-4.183l-12.59,29.628h3.707l3.637-8.603
			h14.674l3.613,8.603h3.741L1336.515,1115.526z M1328.368,1133.485l6.043-14.476l6.036,14.476H1328.368z M1393.989,1115.526
			l-10.264,25.82l-10.226-25.82h-3.678l11.985,29.628h3.835l12.022-29.628H1393.989z M1435.157,1115.526h-4.228l-12.558,29.628
			h3.711l3.609-8.603h14.704l3.613,8.603h3.711L1435.157,1115.526z M1427.003,1133.485l6.036-14.476l6.045,14.476H1427.003z
			 M1477.217,1133.77h10.289l7.161,11.385h3.963l-7.768-11.951c3.291-0.77,7.157-2.688,7.157-8.411c0-5.629-3.894-9.266-9.967-9.266
			h-14.191v29.628h3.356V1133.77z M1477.217,1118.715h10.415c4.22,0,7.034,2.305,7.034,6.077c0,4.603-4.024,5.817-7.226,5.817
			h-10.224V1118.715z M1528.132,1123.322c0-1.984,1.149-5.018,7.857-5.018c5.434,0,7.927,2.362,8.281,5.34h3.454
			c-0.265-4.444-3.841-8.472-11.735-8.472c-7.413,0-11.12,3.356-11.12,8.183c0,10.159,20.26,6.493,20.26,13.743
			c0,3.483-3.128,5.242-8.146,5.242c-5.144,0-9.303-1.76-9.527-6.041h-3.483c0.452,5.307,4.028,9.201,12.786,9.201
			c7.283,0,11.723-3.035,11.723-8.533C1548.482,1126.609,1528.132,1130.194,1528.132,1123.322z M1597.841,1118.752v-3.226h-21.804
			v29.628h21.804v-3.23h-18.443v-9.975h16.488v-3.259h-16.488v-9.939H1597.841z M1657.542,1115.526v29.628h19.494v-3.23h-16.138
			v-26.398H1657.542z M1715.589,1115.172c-8.977,0-15.022,6.745-15.022,15.177c0,8.411,6.045,15.152,15.022,15.152
			c8.981,0,15.026-6.741,15.026-15.152C1730.615,1121.917,1724.571,1115.172,1715.589,1115.172z M1715.589,1142.242
			c-7.185,0-11.661-5.246-11.661-11.894c0-6.676,4.476-11.918,11.661-11.918c7.193,0,11.666,5.242,11.666,11.918
			C1727.255,1136.996,1722.782,1142.242,1715.589,1142.242z M1760.337,1123.322c0-1.984,1.153-5.018,7.865-5.018
			c5.43,0,7.922,2.362,8.277,5.34h3.45c-0.253-4.444-3.837-8.472-11.727-8.472c-7.417,0-11.124,3.356-11.124,8.183
			c0,10.159,20.264,6.493,20.264,13.743c0,3.483-3.132,5.242-8.151,5.242c-5.149,0-9.303-1.76-9.523-6.041h-3.483
			c0.444,5.307,4.024,9.201,12.782,9.201c7.291,0,11.731-3.035,11.731-8.533C1780.699,1126.609,1760.337,1130.194,1760.337,1123.322
			z M1852.648,1115.526h-12.468v29.628h12.468c7.059,0,13.613-5.56,13.613-14.806
			C1866.261,1121.086,1859.707,1115.526,1852.648,1115.526z M1852.518,1141.99h-8.985v-23.274h8.985
			c6.293,0,10.387,5.275,10.387,11.633C1862.905,1136.682,1858.811,1141.99,1852.518,1141.99z M1897.392,1115.526h-3.356v29.628
			h3.356V1115.526z M1948.817,1118.752v-3.226h-21.792v29.628h21.792v-3.23h-18.435v-9.975h16.46v-3.259h-16.46v-9.939H1948.817z
			 M1998.811,1115.526v24.924l-18.313-24.924h-3.898v29.628h3.356v-25.03l18.309,25.03h3.902v-29.628H1998.811z M2052.793,1115.526
			h-24.003v3.226h10.322v26.402h3.36v-26.402h10.321V1115.526z M2101.216,1118.752v-3.226h-21.796v29.628h21.796v-3.23h-18.439
			v-9.975h16.497v-3.259h-16.497v-9.939H2101.216z M2130.62,1123.322c0-1.984,1.153-5.018,7.861-5.018
			c5.438,0,7.931,2.362,8.281,5.34h3.454c-0.252-4.444-3.837-8.472-11.735-8.472c-7.413,0-11.12,3.356-11.12,8.183
			c0,10.159,20.264,6.493,20.264,13.743c0,3.483-3.132,5.242-8.15,5.242c-5.148,0-9.303-1.76-9.523-6.041h-3.487
			c0.452,5.307,4.028,9.201,12.786,9.201c7.287,0,11.731-3.035,11.731-8.533C2150.982,1126.609,2130.62,1130.194,2130.62,1123.322z
			 M2212.418,1123.322c0-1.984,1.177-5.018,7.89-5.018c5.401,0,7.894,2.362,8.277,5.34h3.422c-0.257-4.444-3.837-8.472-11.698-8.472
			c-7.442,0-11.153,3.356-11.153,8.183c0,10.159,20.26,6.493,20.26,13.743c0,3.483-3.128,5.242-8.146,5.242
			c-5.144,0-9.299-1.76-9.527-6.041h-3.479c0.448,5.307,4.02,9.201,12.786,9.201c7.315,0,11.723-3.035,11.723-8.533
			C2232.772,1126.609,2212.418,1130.194,2212.418,1123.322z M2282.123,1118.752v-3.226h-21.767v29.628h21.767v-3.23h-18.407v-9.975
			h16.46v-3.259h-16.46v-9.939H2282.123z M2323.229,1115.526h-4.216l-12.566,29.628h3.707l3.613-8.603h14.668l3.646,8.603h3.715
			L2323.229,1115.526z M2315.079,1133.485l6.041-14.476l6.041,14.476H2315.079z M2407.133,1115.526h-4.224l-12.562,29.628h3.707
			l3.613-8.603h14.668l3.649,8.603h3.711L2407.133,1115.526z M2398.979,1133.485l6.045-14.476l6.037,14.476H2398.979z
			 M2445.837,1115.526v29.628h19.499v-3.23h-16.142v-26.398H2445.837z M2503.465,1115.172c-8.92,0-14.611,6.745-14.611,15.177
			c0,8.411,5.466,15.152,14.517,15.152c5.369,0,8.851-2.717,10.737-5.597v5.25h3.096v-15.759h-13.93v3.039h10.835
			c0,6.199-5.116,9.808-10.484,9.808c-7.189,0-11.413-5.246-11.413-11.894c0-6.676,4.318-11.918,11.511-11.918
			c4.542,0,7.731,1.988,9.523,5.153h3.678C2514.743,1118.626,2509.823,1115.172,2503.465,1115.172z M2558.632,1115.172
			c-8.977,0-15.022,6.745-15.022,15.177c0,8.411,6.045,15.152,15.022,15.152c8.986,0,15.026-6.741,15.026-15.152
			C2573.658,1121.917,2567.618,1115.172,2558.632,1115.172z M2558.632,1142.242c-7.189,0-11.666-5.246-11.666-11.894
			c0-6.676,4.476-11.918,11.666-11.918c7.193,0,11.67,5.242,11.67,11.918C2570.302,1136.996,2565.825,1142.242,2558.632,1142.242z
			 M2645.795,1115.526h-12.464v29.628h12.464c7.063,0,13.617-5.56,13.617-14.806
			C2659.411,1121.086,2652.857,1115.526,2645.795,1115.526z M2645.668,1141.99h-8.981v-23.274h8.981
			c6.293,0,10.383,5.275,10.383,11.633C2656.051,1136.682,2651.961,1141.99,2645.668,1141.99z M2690.543,1115.526h-3.356v29.628
			h3.356V1115.526z M2740.847,1115.526l-10.256,25.82l-10.228-25.82h-3.674l11.987,29.628h3.833l12.016-29.628H2740.847z
			 M2792.434,1118.752v-3.226h-21.796v29.628h21.796v-3.23h-18.443v-9.975h16.464v-3.259h-16.464v-9.939H2792.434z M2823.57,1133.77
			h10.293l7.153,11.385h4l-7.796-11.951c3.32-0.77,7.153-2.688,7.153-8.411c0-5.629-3.861-9.266-9.967-9.266h-14.195v29.628h3.361
			V1133.77z M2823.57,1118.715h10.452c4.187,0,6.994,2.305,6.994,6.077c0,4.603-4.024,5.817-7.189,5.817h-10.256V1118.715z
			 M2893.567,1115.526h-24.036v3.226h10.354v26.402h3.356v-26.402h10.325V1115.526z M2923.546,1115.526h-3.356v29.628h3.356
			V1115.526z M2965.647,1115.526h-12.468v29.628h12.468c7.087,0,13.608-5.56,13.608-14.806
			C2979.255,1121.086,2972.734,1115.526,2965.647,1115.526z M2965.521,1141.99h-8.994v-23.274h8.994
			c6.326,0,10.379,5.275,10.379,11.633C2975.899,1136.682,2971.846,1141.99,2965.521,1141.99z M3020.203,1115.172
			c-8.981,0-15.022,6.745-15.022,15.177c0,8.411,6.041,15.152,15.022,15.152s15.018-6.741,15.018-15.152
			C3035.221,1121.917,3029.185,1115.172,3020.203,1115.172z M3020.203,1142.242c-7.193,0-11.67-5.246-11.67-11.894
			c0-6.676,4.476-11.918,11.67-11.918c7.189,0,11.666,5.242,11.666,11.918C3031.869,1136.996,3027.393,1142.242,3020.203,1142.242z
			 M3062.137,1140.58v4.574h4.346v-4.574H3062.137z M3065.522,1136.967l0.868-21.441h-4.159l0.831,21.441H3065.522z"/>
	</g>
</g>
</svg>
